<svg width="24" height="24" viewBox="0 0 24 24" fill="none" xmlns="http://www.w3.org/2000/svg">
<g id="Group 35">
<g id="Group">
<path id="Vector" d="M22.1594 6.49183C21.4564 6.45343 20.7843 6.409 20.1114 6.38039C16.3267 6.21925 12.542 6.06262 8.75734 5.90299C8.5953 5.89621 8.43251 5.88266 8.27122 5.86383C7.84736 5.81414 7.56079 5.48658 7.5758 5.07695C7.5908 4.66958 7.90513 4.33977 8.32973 4.3473C9.19169 4.36386 10.0537 4.40452 10.9156 4.44293C12.9141 4.53103 14.9118 4.62741 16.9103 4.71401C18.9711 4.80286 21.0326 4.87967 23.0933 4.97078C23.8488 5.00391 24.1541 5.44065 23.926 6.15675C22.8878 9.41045 21.845 12.6634 20.8015 15.9156C20.6342 16.4374 20.4212 16.5692 19.7723 16.57C16.2209 16.5715 12.6695 16.5707 9.11817 16.5707C8.419 16.5707 8.419 16.5707 8.17669 17.2522C8.05066 17.6061 7.92388 17.9592 7.79785 18.3124C7.78135 18.3583 7.76634 18.405 7.73033 18.5097C7.89838 18.5097 8.04016 18.5097 8.18194 18.5097C12.0086 18.5097 15.8353 18.5097 19.6612 18.5097C19.761 18.5097 19.8615 18.5067 19.9613 18.5104C20.3957 18.527 20.6807 18.7943 20.6702 19.1716C20.6605 19.5338 20.3792 19.7838 19.9666 19.7928C19.7805 19.7966 19.5937 19.7935 19.3222 19.7935C19.7738 20.3854 19.9771 21.0044 19.872 21.6851C19.7655 22.3756 19.4144 22.929 18.8195 23.3018C17.8953 23.8808 16.764 23.7611 15.9891 23.0096C15.3357 22.3763 14.8946 21.1738 15.8166 19.8252C14.1722 19.8252 12.5495 19.8252 10.8774 19.8252C11.32 20.4374 11.5338 21.0887 11.3785 21.8146C11.2562 22.3854 10.9546 22.8515 10.4858 23.2069C9.6403 23.8477 8.47752 23.813 7.64481 23.118C6.69283 22.3236 6.59156 21.3146 7.33949 19.7928C7.1752 19.7928 7.03116 19.795 6.88788 19.792C6.32374 19.78 6.04542 19.3945 6.22922 18.8576C6.45277 18.207 6.69283 17.5617 6.92539 16.9141C6.9584 16.8222 6.98615 16.7281 7.02891 16.5971C6.88413 16.5843 6.7656 16.5745 6.64707 16.5632C6.24947 16.524 6.00341 16.3207 5.92765 15.9216C5.62757 14.3343 5.335 12.7462 5.04318 11.1574C4.60957 8.793 4.17672 6.42858 3.75061 4.06266C3.7086 3.82773 3.60658 3.6952 3.37927 3.6086C2.42204 3.24415 1.47006 2.86766 0.521827 2.48363C0.142235 2.33001 -0.0475617 2.00924 0.0102024 1.65834C0.0694668 1.29916 0.281018 1.05895 0.641106 1.007C0.803896 0.983654 0.989941 1.0213 1.14673 1.08154C2.2765 1.51527 3.39953 1.96707 4.5293 2.40155C4.9119 2.54838 5.09794 2.82624 5.16771 3.21178C5.64258 5.83597 6.11744 8.46017 6.59606 11.0844C6.81811 12.3035 7.05667 13.5196 7.26597 14.7409C7.30873 14.9902 7.41226 15.0346 7.63356 15.0346C11.4722 15.0293 15.3117 15.0301 19.1504 15.0323C19.3342 15.0323 19.4752 15.0293 19.5472 14.8004C20.4062 12.0806 21.2749 9.36377 22.1406 6.64545C22.1526 6.61231 22.1504 6.57466 22.1594 6.49183ZM16.575 21.3372C16.5712 21.9117 17.0138 22.3628 17.5832 22.3665C18.1556 22.3703 18.6035 21.9253 18.6057 21.3507C18.608 20.7845 18.1534 20.3161 17.5967 20.3109C17.0469 20.3063 16.578 20.7762 16.575 21.3372ZM10.1347 21.359C10.1414 20.7988 9.68381 20.3206 9.13168 20.3109C8.58554 20.3011 8.10393 20.7739 8.09567 21.3282C8.08742 21.8974 8.53303 22.3575 9.10092 22.3665C9.67031 22.3756 10.1279 21.9298 10.1347 21.359Z" fill="white"/>
</g>
</g>
</svg>
