<svg width="24" height="24" viewBox="0 0 24 24" fill="none" xmlns="http://www.w3.org/2000/svg">
<g id="Group 34">
<g id="Group">
<path id="Vector" d="M24 12.0124C23.991 18.6469 18.6067 24.0157 11.9787 24C5.34238 23.9842 -0.0224203 18.5959 7.04581e-05 11.9689C0.0225612 5.34557 5.38512 -0.0022488 12.0027 7.09412e-07C18.6352 0.00225021 24.0082 5.38232 24 12.0124ZM22.1235 12.0311C22.143 6.44933 17.6179 1.89633 12.0311 1.87609C6.44968 1.85659 1.89604 6.38184 1.87655 11.9689C1.85706 17.5506 6.38221 22.1044 11.9689 22.1239C17.5504 22.1434 22.104 17.6181 22.1235 12.0311Z" fill="white"/>
<path id="Vector_2" d="M11.0603 13.7385C11.0603 13.4385 11.0596 13.1386 11.0603 12.8394C11.0641 12.0131 11.3347 11.7094 12.1496 11.6307C12.7756 11.5699 13.2644 11.2828 13.5868 10.7429C13.9984 10.053 13.9684 9.35793 13.5231 8.69882C13.0928 8.06296 12.2846 7.75628 11.5446 7.96173C10.7995 8.16794 10.3249 8.66283 10.1682 9.43441C10.1435 9.55588 10.1375 9.68185 10.1232 9.80558C10.0588 10.3687 9.64493 10.7429 9.12539 10.7061C8.59985 10.6694 8.2475 10.257 8.252 9.68185C8.26549 7.6648 10.0663 5.94243 12.0769 6.02491C13.8784 6.09839 15.4138 7.38961 15.6792 9.05499C15.9881 10.9873 15.0135 12.6737 13.197 13.3178C12.9856 13.3928 12.9316 13.4955 12.9361 13.695C12.9443 14.0946 12.9481 14.495 12.9338 14.894C12.9128 15.4743 12.5365 15.8537 12.0027 15.856C11.4689 15.8575 11.0881 15.4781 11.0663 14.9C11.0513 14.513 11.0633 14.1254 11.0633 13.7385C11.0618 13.7385 11.0611 13.7385 11.0603 13.7385Z" fill="white"/>
<path id="Vector_3" d="M11.9951 18.9101C11.3616 18.9078 10.8241 18.3754 10.8203 17.7463C10.8166 17.1052 11.3729 16.5608 12.0228 16.5713C12.6503 16.5811 13.1894 17.133 13.1781 17.7546C13.1669 18.3874 12.6293 18.9116 11.9951 18.9101Z" fill="white"/>
</g>
</g>
</svg>
