<svg width="24" height="24" viewBox="0 0 24 24" fill="none" xmlns="http://www.w3.org/2000/svg">
<g id="Group 36">
<path id="Vector" d="M12.0129 1.03858e-05C18.6465 0.00864037 24.0144 5.39375 23.9971 12.0245C23.9827 18.658 18.5947 24.0201 11.9669 24C5.34484 23.977 -0.0028755 18.612 1.16002e-06 11.9928C0.00287782 5.36211 5.38511 -0.0086196 12.0129 1.03858e-05ZM20.0043 18.8767C23.4362 15.0536 23.7152 8.41425 19.1298 4.17693C14.7343 0.1122 7.74973 0.575343 3.86624 5.22978C0.060411 9.79217 1.13916 15.8706 4.00719 18.8479C4.78677 16.1237 6.50989 14.2452 9.12765 13.1751C6.28263 11.0521 6.49838 7.48509 8.29054 5.55485C10.0971 3.60735 13.1722 3.38872 15.2348 5.11184C16.2675 5.97484 16.886 7.09098 17.0155 8.42288C17.2082 10.3876 16.4401 11.9583 14.8666 13.1607C17.5016 14.2078 19.2506 16.2388 20.0043 18.8767ZM12.0762 22.5818C14.4063 22.5617 16.561 21.8281 18.4739 20.3697C18.7213 20.1798 18.7846 20.0072 18.73 19.7138C17.9561 15.557 13.7274 13.0601 9.74326 14.4869C7.25782 15.3786 5.77059 17.1996 5.25566 19.8001C5.21251 20.0158 5.25279 20.1625 5.44265 20.3092C7.37864 21.8022 9.56203 22.5674 12.0762 22.5818ZM12.0072 12.6199C14.0237 12.6113 15.6749 10.9543 15.6462 8.96657C15.6174 6.97304 13.9835 5.34197 12.0072 5.33334C10.028 5.32471 8.35095 6.99893 8.34808 8.9867C8.34808 10.9889 9.99928 12.6286 12.0072 12.6199Z" fill="white"/>
</g>
</svg>
